<svg width="56" height="56" viewBox="0 0 56 56" fill="none" xmlns="http://www.w3.org/2000/svg">
<rect width="56" height="56" rx="28" fill="#5D5FEF"/>
<path d="M22.6667 37.3337C24.1333 37.3337 25.3333 36.1337 25.3333 34.667V21.3337C25.3333 19.867 24.1333 18.667 22.6667 18.667C21.2 18.667 20 19.867 20 21.3337V34.667C20 36.1337 21.2 37.3337 22.6667 37.3337ZM30.6667 21.3337V34.667C30.6667 36.1337 31.8667 37.3337 33.3333 37.3337C34.8 37.3337 36 36.1337 36 34.667V21.3337C36 19.867 34.8 18.667 33.3333 18.667C31.8667 18.667 30.6667 19.867 30.6667 21.3337Z" fill="white"/>
</svg>
